<?xml version="1.0" encoding="utf-8"?>
<!-- Generator: Adobe Illustrator 28.0.0, SVG Export Plug-In . SVG Version: 6.00 Build 0)  -->
<svg version="1.1" id="Layer_1" xmlns="http://www.w3.org/2000/svg" xmlns:xlink="http://www.w3.org/1999/xlink" x="0px" y="0px"
	 viewBox="0 0 1000 1000" style="enable-background:new 0 0 1000 1000;" xml:space="preserve">
<style type="text/css">
	.st0{fill:#4F0D0F;}
	.st1{fill:#E89D73;}
	.st2{fill:#C84938;}
	.st3{fill:#FBF3E6;}
	.st4{font-family:'Raleway-ExtraBold';}
	.st5{font-size:84.3008px;}
	.st6{fill:#AA5D48;}
	.st7{font-family:'Raleway-Medium';}
	.st8{font-size:43.082px;}
</style>
<rect class="st0" width="1000" height="1000"/>
<g>
	<g>
		<path class="st1" d="M648.36,414.33c-1.74,3.77-3.61,7.41-5.59,10.91c-12.9,22.85-30.18,40.02-41.46,50.44
			c-28.72,26.54-57.09,44.09-83.76,56c-8.18,3.65-13.76,4.78-17.55,4.45c-10.86-0.92-6.92-13.86-6.92-13.86
			c1.84-8.17,4.16-15.64,6.92-22.54c13.02-32.56,35.95-52.39,65.92-71.95c8.98-5.86,21.13-16.33,28.43-18.07
			c6.68-1.6,7.81,8.84,0,18.82c-8.06,10.29-30.12,27.1-30.12,27.1c-5.65,5.46-11.11,10.73-3.58,11.86
			c7.53,1.13,16.9-5.13,35.3-17.97c8.43-5.89,23.04-15.86,33.99-34.19c1.5-2.5,2.93-5.16,4.25-7.98h0.01c0,0,4.94-4.61,9.57-1.79
			C648.82,408.63,648.23,411.27,648.36,414.33z"/>
		<path class="st2" d="M657.97,340.81c-12.42-66.26-71.91-76.42-100.89-68.14c-26.37,7.53-47.75,24.1-57.08,33.27
			c-9.32-9.17-30.71-25.74-57.07-33.27c-28.99-8.28-88.48,1.88-100.9,68.14c-12.42,66.26,34.12,114.04,56.66,134.87
			c28.72,26.54,57.09,44.09,83.76,56c8.18,3.65,13.76,4.78,17.55,4.45c10.86-0.92,6.93-13.86,6.93-13.86
			c-1.85-8.17-4.16-15.64-6.93-22.54c-13.02-32.56-35.95-52.39-65.92-71.95c-8.97-5.86-21.13-16.33-28.43-18.07
			c-6.68-1.6-7.81,8.84,0,18.82c8.06,10.29,30.12,27.1,30.12,27.1c5.65,5.46,11.11,10.73,3.58,11.86
			c-7.53,1.13-16.9-5.13-35.3-17.97c-14.96-10.45-49.41-33.79-48.28-93.84c0.9-47.83,39.79-77.28,80.85-69.36
			c30.96,5.97,54.44,30.32,63.38,41.5v0.01c0,0,0,0,0,0c0,0,0,0,0,0v0c8.93-11.18,32.42-35.53,63.38-41.49
			c41.06-7.92,79.95,21.53,80.85,69.36c0.41,21.6-3.79,38.46-10.04,51.67h0.01c0,0,4.94-4.61,9.57-1.79
			c5.05,3.07,4.46,5.71,4.59,8.77C657.93,393.56,663.22,368.84,657.97,340.81z"/>
	</g>
	<g>
		<text transform="matrix(1.0359 0 0 1 199.2029 655.7607)" class="st3 st4 st5">TRYG-TEAMET</text>
	</g>
	<g>
		<text transform="matrix(0.9853 0 0 1 283.8714 720.1074)" class="st6 st7 st8">-sammen om tryghed</text>
	</g>
</g>
</svg>
