<?xml version="1.0" encoding="utf-8"?>
<!-- Generator: Adobe Illustrator 28.0.0, SVG Export Plug-In . SVG Version: 6.00 Build 0)  -->
<svg version="1.1" id="Layer_1" xmlns="http://www.w3.org/2000/svg" xmlns:xlink="http://www.w3.org/1999/xlink" x="0px" y="0px"
	 viewBox="0 0 1000 1000" style="enable-background:new 0 0 1000 1000;" xml:space="preserve">
<style type="text/css">
	.st0{fill:#4F0D0F;}
	.st1{fill:#E89D73;}
	.st2{fill:#C84938;}
</style>
<rect class="st0" width="1000" height="1000"/>
<g>
	<g>
		<path class="st1" d="M850.65,526.32c-4.11,8.91-8.53,17.51-13.21,25.79c-30.49,54.01-71.33,94.59-97.99,119.22
			c-67.88,62.73-134.93,104.21-197.97,132.36c-19.33,8.63-32.52,11.3-41.48,10.52c-25.67-2.17-16.36-32.76-16.36-32.76
			c4.35-19.31,9.83-36.97,16.36-53.27c30.77-76.96,84.97-123.82,155.8-170.05c21.22-13.85,49.94-38.6,67.19-42.71
			c15.79-3.78,18.46,20.89,0,44.48c-19.05,24.32-71.19,64.05-71.19,64.05c-13.35,12.9-26.26,25.36-8.46,28.03
			c17.8,2.67,39.94-12.12,83.43-42.47c19.92-13.92,54.46-37.49,80.34-80.81c3.55-5.91,6.93-12.2,10.04-18.86h0.02
			c0,0,11.68-10.9,22.62-4.23C851.73,512.85,850.34,519.09,850.65,526.32z"/>
		<path class="st2" d="M873.36,352.56C844.01,195.95,703.4,171.94,634.91,191.51c-62.32,17.79-112.87,56.95-134.9,78.62
			c-22.03-21.67-72.58-60.84-134.89-78.63C296.6,171.93,156,195.94,126.64,352.55c-29.35,156.61,80.64,269.53,133.92,318.77
			c67.88,62.73,134.93,104.21,197.97,132.36c19.33,8.63,32.52,11.3,41.48,10.52c25.67-2.17,16.38-32.76,16.38-32.76
			c-4.37-19.31-9.83-36.97-16.38-53.27c-30.77-76.96-84.97-123.82-155.8-170.05c-21.2-13.85-49.94-38.6-67.19-42.71
			c-15.79-3.78-18.46,20.89,0,44.48c19.05,24.32,71.19,64.05,71.19,64.05c13.35,12.9,26.26,25.36,8.46,28.03
			c-17.8,2.67-39.94-12.12-83.43-42.47c-35.36-24.7-116.78-79.86-114.11-221.79c2.13-113.05,94.04-182.65,191.09-163.93
			c73.16,14.11,128.68,71.65,149.79,98.08v0.01c0,0,0,0,0.01-0.01c0,0,0,0,0,0.01v-0.01c21.11-26.43,76.63-83.97,149.79-98.07
			c97.05-18.72,188.96,50.89,191.09,163.93c0.97,51.05-8.96,90.9-23.73,122.12h0.02c0,0,11.68-10.9,22.62-4.23
			c11.94,7.26,10.54,13.5,10.85,20.73C873.27,477.23,885.77,418.81,873.36,352.56z"/>
	</g>
</g>
</svg>
